<?xml version="1.0" standalone="no"?><!DOCTYPE svg PUBLIC "-//W3C//DTD SVG 1.1//EN" "http://www.w3.org/Graphics/SVG/1.1/DTD/svg11.dtd"><svg t="1747381918346" class="icon" viewBox="0 0 1079 1024" version="1.1" xmlns="http://www.w3.org/2000/svg" p-id="17009" xmlns:xlink="http://www.w3.org/1999/xlink" width="210.7421875" height="200"><path d="M554.185465 984.021265l272.063191-689.804909-0.012879-250.176207-270.715112 296.607696-290.9449-296.607696 0.163143 246.939098 289.446557 693.042018" fill="#A2B9FF" p-id="17010"></path><path d="M264.575765 44.040149H826.235777l208.428654 200.597767-480.478966 739.383349L40.794452 259.410986z" fill="#96A3FF" p-id="17011"></path><path d="M529.426298 277.266609l-97.594137-170.978643h113.582196V44.040149H303.652918z" fill="#E0E8FF" opacity=".5" p-id="17012"></path><path d="M554.185465 1009.780759a25.759494 25.759494 0 0 1-23.77172-15.833502L240.967189 300.909532a25.750908 25.750908 0 0 1-1.987775-9.913113l-0.163143-246.939097a25.763787 25.763787 0 0 1 44.14748-18.057406l271.878581 277.176451 252.365765-276.502411a25.742321 25.742321 0 0 1 28.339737-6.650243 25.755201 25.755201 0 0 1 16.447437 24.016436l0.012879 250.171914a25.802427 25.802427 0 0 1-1.794578 9.453734l-272.063191 689.809202a25.768081 25.768081 0 0 1-23.707321 16.310053l-0.257595-0.004293z m-263.691356-723.970584l263.008729 629.738061L800.489162 289.322052l-0.008586-178.848168-225.936524 247.540153a25.759494 25.759494 0 0 1-18.564009 8.389009c-6.912131 0.034346-13.892954-2.666108-18.851656-7.714969L290.378192 107.129443l0.115917 178.680732z" fill="#5A5A7D" p-id="17013"></path><path d="M551.20595 368.167571c-1.429652 0-2.859304-0.120211-4.276076-0.35634L53.764358 284.814141a25.759494 25.759494 0 1 1 8.552152-50.806309L551.081446 316.26219l461.816212-82.211426a25.759494 25.759494 0 1 1 9.032996 50.720444L555.718155 367.768299c-1.489757 0.266181-3.005274 0.399272-4.512205 0.399272z" fill="#5A5A7D" p-id="17014"></path><path d="M545.414357 934.88503l-149.362134-549.535876 159.665932-17.580855-247.771988-40.180518z" fill="#E0E8FF" opacity=".5" p-id="17015"></path><path d="M554.185465 1009.780759h-0.038639a25.759494 25.759494 0 0 1-25.720855-25.798133l1.3352-939.981117a25.759494 25.759494 0 0 1 25.759494-25.725148h0.03864a25.759494 25.759494 0 0 1 25.720855 25.79384l-1.335201 939.98541a25.759494 25.759494 0 0 1-25.759494 25.725148z" fill="#5A5A7D" p-id="17016"></path><path d="M554.185465 1009.780759a25.759494 25.759494 0 0 1-21.019747-10.866213L19.774705 274.304267a25.768081 25.768081 0 0 1 3.155538-33.452996L246.715849 25.480433a25.759494 25.759494 0 0 1 17.864209-7.199779H826.235777c6.663123 0 13.064357 2.580243 17.859915 7.199779l208.428655 200.597768a25.763787 25.763787 0 0 1 3.739419 32.59864l-480.478965 739.383348a25.768081 25.768081 0 0 1-21.084146 11.716277l-0.51519 0.004293zM74.625255 262.605164l478.637161 675.559908L1001.473322 248.441735l-185.614328-178.642092H274.961134L74.625255 262.605164z" fill="#5A5A7D" p-id="17017"></path></svg>