<?xml version="1.0" standalone="no"?><!DOCTYPE svg PUBLIC "-//W3C//DTD SVG 1.1//EN" "http://www.w3.org/Graphics/SVG/1.1/DTD/svg11.dtd"><svg t="1747274017553" class="icon" viewBox="0 0 1024 1024" version="1.1" xmlns="http://www.w3.org/2000/svg" p-id="6673" xmlns:xlink="http://www.w3.org/1999/xlink" width="200" height="200"><path d="M111 747l1.059 0.01c34.524 0.61 62.38 28.51 62.933 63.037l0.009 1.048v36.936h672l0.001-36.94c0.001-34.99 28.084-63.422 62.94-63.987l1.058-0.009V880c0 17.497-14.042 31.713-31.47 31.996L879 912l-736-0.004c-17.496 0-31.713-14.042-32-31.471V747z m146-299c35.346 0 64 28.654 64 64 0 35.346-28.654 64-64 64-35.346 0-64-28.654-64-64 0-35.346 28.654-64 64-64z m256 0c35.346 0 64 28.654 64 64 0 35.346-28.654 64-64 64-35.346 0-64-28.654-64-64 0-35.346 28.654-64 64-64z m256 0c35.346 0 64 28.654 64 64 0 35.346-28.654 64-64 64-35.346 0-64-28.654-64-64 0-35.346 28.654-64 64-64z m111-336c17.496 0 31.713 14.042 32 31.47v133.435c-35.344 0-63.997-28.652-63.998-63.996l-0.001-36.94H176v36.936c0 35.008-28.07 63.468-62.942 64.085L112 277V144.004c0-17.673 14.327-32 32-32L880 112z" fill="#000000" fill-opacity=".65" p-id="6674"></path></svg>