<?xml version="1.0" standalone="no"?><!DOCTYPE svg PUBLIC "-//W3C//DTD SVG 1.1//EN" "http://www.w3.org/Graphics/SVG/1.1/DTD/svg11.dtd"><svg t="1747470784075" class="icon" viewBox="0 0 2176 1024" version="1.1" xmlns="http://www.w3.org/2000/svg" p-id="12112" xmlns:xlink="http://www.w3.org/1999/xlink" width="425" height="200"><path d="M0 0m391.116238 0l880.011535 0q391.116238 0 391.116237 391.116238l0 0q0 391.116238-391.116237 391.116237l-880.011535 0q-391.116238 0-391.116238-391.116237l0 0q0-391.116238 391.116238-391.116238Z" fill="#D9AD66" p-id="12113"></path><path d="M564.869626 586.674357L439.76132 236.723103h76.658782l88.538939 259.016728 85.703345-259.016728h74.947649L640.306171 586.674357h-75.436545z m234.669743 0V236.723103h70.64537V586.674357h-70.64537z m137.966253 0V236.723103h113.423709c42.925007 0 70.889818 1.760023 83.992212 5.23118 20.044707 5.280069 36.813816 16.67133 50.356215 34.22267 13.5424 17.600231 20.289155 40.333862 20.289155 68.200894 0 21.511393-3.911162 39.55163-11.733487 54.169599-7.773435 14.666859-17.64912 26.155898-29.675944 34.516008-12.026824 8.31122-24.249207 13.884626-36.667148 16.62244-16.866888 3.324488-41.262763 4.986732-73.285405 4.986732h-46.053937V586.674357h-70.64537z m70.64537-290.746034v99.294635h38.671618c27.867032 0 46.445053-1.808913 55.880733-5.475627a46.396164 46.396164 0 0 0 22.049178-17.209115 47.031728 47.031728 0 0 0 8.017883-27.231468 45.222815 45.222815 0 0 0-11.244592-31.484857 48.88953 48.88953 0 0 0-28.355928-15.497981c-8.457889-1.613354-25.422555-2.444476-50.84511-2.444476h-34.173782z" fill="#FFFFFF" p-id="12114"></path></svg>