<?xml version="1.0" standalone="no"?><!DOCTYPE svg PUBLIC "-//W3C//DTD SVG 1.1//EN" "http://www.w3.org/Graphics/SVG/1.1/DTD/svg11.dtd"><svg t="1765937172268" class="icon" viewBox="0 0 1024 1024" version="1.1" xmlns="http://www.w3.org/2000/svg" p-id="1563" xmlns:xlink="http://www.w3.org/1999/xlink" width="200" height="200"><path d="M811.38 846.16H212.47c-44.69 0-81.04-36.36-81.04-81.04V298.14c0-44.68 36.35-81.04 81.04-81.04h598.91c44.69 0 81.04 36.36 81.04 81.04v466.98c0 44.68-36.35 81.04-81.04 81.04zM212.47 290.25c-4.35 0-7.89 3.54-7.89 7.89v466.98c0 4.36 3.54 7.89 7.89 7.89h598.91c4.35 0 7.89-3.54 7.89-7.89V298.14c0-4.36-3.54-7.89-7.89-7.89H212.47z" fill="#000000" p-id="1564"></path><path d="M349.83 652.41c-20.2 0-36.57-16.38-36.57-36.57V447.42c0-20.2 16.38-36.57 36.57-36.57 20.2 0 36.57 16.38 36.57 36.57v168.41c0 20.2-16.38 36.58-36.57 36.58zM511.92 652.41c-20.2 0-36.57-16.38-36.57-36.57V447.42c0-20.2 16.38-36.57 36.57-36.57 20.2 0 36.57 16.38 36.57 36.57v168.41c0.01 20.2-16.37 36.58-36.57 36.58zM674.02 652.41c-20.2 0-36.57-16.38-36.57-36.57V447.42c0-20.2 16.38-36.57 36.57-36.57 20.2 0 36.57 16.38 36.57 36.57v168.41c0 20.2-16.37 36.58-36.57 36.58z" fill="#000000" p-id="1565"></path></svg>